<svg width="77" height="23" viewBox="0 0 77 23" fill="none" xmlns="http://www.w3.org/2000/svg">
<path d="M5.91552 0.294922V18.3629H13.1034V22.547H0.427612V0.294922H5.91552Z" fill="#172C4F"/>
<path d="M29.536 4.63709H21.2241V9.13729H28.572V13.3214H21.2241V18.2049H29.536V22.547H15.7362V0.294922H29.536V4.63709Z" fill="#172C4F"/>
<path d="M47.1239 18.6158H38.716L37.3681 22.547H31.6241L39.776 0.294922H46.1319L54.2838 22.547H48.4759L47.1239 18.6158ZM42.92 6.28466L40.16 14.4316H45.7119L42.92 6.28466Z" fill="#172C4F"/>
<path d="M76.9995 11.421C76.9995 18.0152 72.3796 22.547 65.1917 22.547H56.7518V0.294922H65.1917C72.3796 0.294922 76.9995 4.79513 76.9995 11.421ZM64.8357 17.8532C68.9756 17.8532 71.4156 15.5063 71.4156 11.417C71.4156 7.32772 68.9756 4.9176 64.8357 4.9176H62.2357V17.8493H64.8357V17.8532Z" fill="#172C4F"/>
</svg>
